<svg width="1426" height="1802" xmlns="http://www.w3.org/2000/svg" xmlns:xlink="http://www.w3.org/1999/xlink" xml:space="preserve" overflow="hidden"><g transform="translate(-1576 -288)"><g><path d="M1932.33 1012.65 1897.75 1125.89 1967.13 1125.89ZM2473.4 931 2581.44 931 2645.02 1037.36 2708.6 931 2816 931 2693.57 1114.07 2693.57 1246 2596.05 1246 2596.05 1114.07ZM2138.11 931 2228.96 931 2347.53 1105.26 2347.53 931 2439.25 931 2439.25 1246 2347.53 1246 2229.61 1073.03 2229.61 1246 2138.11 1246ZM1880.35 931 1986.46 931 2104.81 1246 2003 1246 1987.54 1194 1876.7 1194 1861.45 1246 1762 1246Z" fill="#C1B8B5" fill-rule="evenodd" fill-opacity="1"/><path d="M2261.07 1631.34 2261.07 1803.45 2284.9 1803.45C2305.23 1803.45 2319.69 1801.19 2328.28 1796.68 2336.87 1792.17 2343.6 1784.29 2348.46 1773.04 2353.33 1761.8 2355.76 1743.57 2355.76 1718.36 2355.76 1684.98 2350.32 1662.14 2339.45 1649.82 2328.57 1637.5 2310.53 1631.34 2285.33 1631.34ZM1943.7 1624.03 1943.7 1694.29 1967.54 1694.29C1986.29 1694.29 1999.46 1691.04 2007.05 1684.52 2014.63 1678 2018.43 1669.66 2018.43 1659.49 2018.43 1649.6 2015.13 1641.22 2008.55 1634.35 2001.96 1627.47 1989.58 1624.03 1971.4 1624.03ZM2506.5 1560 2747 1560 2747 1627.68 2604.21 1627.68 2604.21 1682.69 2726.17 1682.69 2726.17 1746.29 2604.21 1746.29 2604.21 1875 2506.5 1875ZM2163.8 1560 2308.31 1560C2336.8 1560 2359.81 1563.87 2377.34 1571.6 2394.88 1579.34 2409.38 1590.44 2420.83 1604.91 2432.28 1619.38 2440.58 1636.21 2445.74 1655.4 2450.89 1674.6 2453.47 1694.94 2453.47 1716.43 2453.47 1750.09 2449.64 1776.2 2441.98 1794.75 2434.32 1813.3 2423.69 1828.84 2410.09 1841.37 2396.49 1853.91 2381.89 1862.25 2366.29 1866.41 2344.96 1872.14 2325.63 1875 2308.31 1875L2163.8 1875ZM1846 1560 2007.69 1560C2042.91 1560 2069.28 1568.38 2086.82 1585.14 2104.35 1601.9 2113.12 1625.75 2113.12 1656.69 2113.12 1688.49 2103.57 1713.35 2084.46 1731.25 2065.34 1749.16 2036.18 1758.11 1996.95 1758.11L1943.7 1758.11 1943.7 1875 1846 1875Z" fill="#C0B9B5" fill-rule="evenodd" fill-opacity="1"/><path d="M1710.45 428.018 1710.45 975.938 1711.01 975.938 1711.01 1604.64 1710.45 1604.64 1710.45 1960.07 2877.4 1960.07 2877.4 879.498 2850.21 852.318 2493.64 852.318C2460.47 852.318 2433.59 825.44 2433.59 792.284L2433.59 435.789 2425.81 428.018ZM1707.52 291 2518.75 291 2999 771.138 2999 1958.51C2999 2029.47 2941.46 2087 2870.48 2087L1707.52 2087C1636.54 2087 1579 2029.47 1579 1958.51L1579 1604.64 1579 975.938 1579 419.494C1579 348.529 1636.54 291 1707.52 291Z" fill="#C1B8B5" fill-rule="evenodd" fill-opacity="1"/><path d="M1995 1407 2142 1407 2142 1297 2436 1297 2436 1407 2583 1407 2289 1517Z" fill="#C0B9B5" fill-rule="evenodd" fill-opacity="1"/></g></g></svg>