<svg width="1618" height="1802" xmlns="http://www.w3.org/2000/svg" xmlns:xlink="http://www.w3.org/1999/xlink" xml:space="preserve" overflow="hidden"><g transform="translate(-1384 -288)"><g><path d="M2065.44 1201.05 2096.43 1201.05C2128.61 1201.05 2151.65 1208.69 2165.54 1223.97 2179.44 1239.26 2186.38 1267.6 2186.38 1309 2186.38 1340.28 2183.28 1362.89 2177.06 1376.84 2170.84 1390.79 2162.25 1400.56 2151.28 1406.16 2140.31 1411.76 2121.85 1414.55 2095.88 1414.55L2065.44 1414.55ZM1660.11 1191.99 1695.48 1191.99C1718.7 1191.99 1734.52 1196.25 1742.93 1204.78 1751.34 1213.31 1755.54 1223.71 1755.54 1235.97 1755.54 1248.58 1750.7 1258.94 1741.01 1267.02 1731.32 1275.11 1714.5 1279.15 1690.55 1279.15L1660.11 1279.15ZM2378.91 1112.56 2378.91 1503.31 2503.69 1503.31 2503.69 1343.65 2659.46 1343.65 2659.46 1264.75 2503.69 1264.75 2503.69 1196.52 2686.06 1196.52 2686.06 1112.56ZM1941.21 1112.56 1941.21 1503.31 2125.78 1503.31C2147.9 1503.31 2172.58 1499.76 2199.82 1492.65 2219.75 1487.5 2238.4 1477.15 2255.77 1461.6 2273.14 1446.05 2286.71 1426.77 2296.49 1403.76 2306.28 1380.75 2311.17 1348.36 2311.17 1306.6 2311.17 1279.95 2307.88 1254.72 2301.29 1230.9 2294.71 1207.09 2284.11 1186.21 2269.48 1168.26 2254.85 1150.32 2236.34 1136.55 2213.95 1126.95 2191.55 1117.35 2162.16 1112.56 2125.78 1112.56ZM1535.32 1112.56 1535.32 1503.31 1660.11 1503.31 1660.11 1358.31 1728.12 1358.31C1778.21 1358.31 1815.47 1347.21 1839.87 1324.99 1864.28 1302.78 1876.49 1271.95 1876.49 1232.5 1876.49 1194.12 1865.29 1164.53 1842.89 1143.74 1820.49 1122.95 1786.81 1112.56 1741.83 1112.56ZM1710.46 428.018 1710.46 901.559 2791.96 901.559 2791.96 1701.31 1710.46 1701.31 1710.46 1960.07 2877.4 1960.07 2877.4 879.498 2850.21 852.318 2493.64 852.318C2460.48 852.318 2433.59 825.44 2433.59 792.284L2433.59 435.789 2425.82 428.018ZM1707.53 291 2518.75 291 2999 771.138 2999 1958.51C2999 2029.47 2941.46 2087 2870.48 2087L1707.53 2087C1636.55 2087 1579.01 2029.47 1579.01 1958.51L1579.01 1701.31 1388 1701.31 1388 901.559 1579.01 901.559 1579.01 419.494C1579.01 348.529 1636.55 291 1707.53 291Z" fill="#C1B8B5" fill-rule="evenodd" fill-opacity="1"/></g></g></svg>