<svg width="1421" height="1796" xmlns="http://www.w3.org/2000/svg" xmlns:xlink="http://www.w3.org/1999/xlink" xml:space="preserve" overflow="hidden"><g transform="translate(-1489 -339)"><g><path d="M1621.45 476.942 1621.45 1024.56 1622.01 1024.56 1622.01 1652.91 1621.45 1652.91 1621.45 2008.15 2788.4 2008.15 2788.4 928.17 2761.21 901.005 2404.64 901.005C2371.47 901.005 2344.59 874.142 2344.59 841.005L2344.59 484.709 2336.82 476.942ZM1618.52 340 2429.75 340 2910 819.871 2910 2006.58C2910 2077.5 2852.46 2135 2781.48 2135L1618.52 2135C1547.54 2135 1490 2077.5 1490 2006.58L1490 1652.91 1490 1024.56 1490 468.423C1490 397.497 1547.54 340 1618.52 340Z" fill="#C1B8B5" fill-rule="evenodd" fill-opacity="1"/><path d="M2591.55 1162 2591.55 1352 2773 1352 2773 1732 2591.55 1732 2591.55 1922 2424 1542Z" fill="#C0B9B5" fill-rule="evenodd" fill-opacity="1"/><path d="M1639 782.5 1809.25 782.5 1809.25 520 2149.75 520 2149.75 782.5 2320 782.5 1979.5 1045Z" fill="#C0B9B5" fill-rule="evenodd" fill-opacity="1"/><path d="M1798.14 1206.29 1798.14 1843.82 2250.74 1843.82 2250.74 1363.09 2121.64 1363.09C2105.73 1363.09 2092.84 1350.21 2092.84 1334.31L2092.84 1206.29ZM1744.64 1094 2133.68 1094 2364 1324.18 2364 1893.4C2364 1927.42 2336.4 1955 2302.36 1955L1744.64 1955 1739.13 1953.89 1734.99 1953.89 1734.99 1953.05 1720.65 1950.16C1698.52 1940.81 1683 1918.92 1683 1893.4L1683 1723.76 1683 1422.36 1683 1155.6C1683 1121.58 1710.6 1094 1744.64 1094Z" fill="#C1B8B5" fill-rule="evenodd" fill-opacity="1"/></g></g></svg>