<svg width="1609" height="1921" xmlns="http://www.w3.org/2000/svg" xmlns:xlink="http://www.w3.org/1999/xlink" xml:space="preserve" overflow="hidden"><g transform="translate(-2717 -210)"><g><path d="M3902.45 1516 3902.45 1705.87 3712.84 1705.87 3712.84 1820.13 3902.45 1820.13 3902.45 2010 4016.55 2010 4016.55 1820.13 4206.16 1820.13 4206.16 1705.87 4016.55 1705.87 4016.55 1516ZM3959.5 1399C4160.26 1399 4323 1561.97 4323 1763 4323 1964.03 4160.26 2127 3959.5 2127 3758.74 2127 3596 1964.03 3596 1763 3596 1561.97 3758.74 1399 3959.5 1399Z" fill="#C0B8B5" fill-rule="evenodd" fill-opacity="1"/><path d="M4015.7 1820.17 4142.75 1820.17 4141.43 1833.26C4129.43 1891.88 4094.65 1942.19 4046.75 1974.56L4015.7 1991.41ZM2947.12 214 3920.88 214C4045.21 214 4146 314.782 4146 439.102L4146 1705.98 4015.88 1705.98 4015.88 475.558C4015.88 403.752 3957.67 345.541 3885.85 345.541L2982.15 345.541C2910.33 345.541 2852.12 403.752 2852.12 475.558L2852.12 1751.44C2852.12 1823.25 2910.33 1881.46 2982.15 1881.46L3885.85 1881.46 3901.5 1879.88 3901.5 2009.95 3951.14 2009.95 3920.88 2013 2947.12 2013C2822.79 2013 2722 1912.22 2722 1787.9L2722 439.102C2722 314.782 2822.79 214 2947.12 214Z" fill="#C1B8B5" fill-rule="evenodd" fill-opacity="1"/><rect x="3044" y="555" width="781" height="135" fill="#C1B8B5" fill-opacity="1"/><rect x="3043" y="864" width="781" height="135" fill="#C1B8B5" fill-opacity="1"/><rect x="3042" y="1173" width="781" height="135" fill="#C1B8B5" fill-opacity="1"/><rect x="3040" y="1482" width="782" height="136" fill="#C1B8B5" fill-opacity="1"/></g></g></svg>