<svg width="1810" height="1430" xmlns="http://www.w3.org/2000/svg" xmlns:xlink="http://www.w3.org/1999/xlink" xml:space="preserve" overflow="hidden"><g transform="translate(-1297 -504)"><g><path d="M1578.37 631.907C1494.76 631.907 1426.97 699.658 1426.97 783.233L1426.97 1648.13C1426.97 1731.7 1494.76 1799.45 1578.37 1799.45L2821.8 1799.45C2905.42 1799.45 2973.21 1731.7 2973.21 1648.13L2973.21 783.233C2973.21 699.658 2905.42 631.907 2821.8 631.907ZM1574.71 505 2828.29 505C2980.01 505 3103 627.929 3103 779.569L3103 1657.43C3103 1809.07 2980.01 1932 2828.29 1932L1574.71 1932C1422.99 1932 1300 1809.07 1300 1657.43L1300 779.569C1300 627.929 1422.99 505 1574.71 505Z" fill="#C1B8B5" fill-rule="evenodd" fill-opacity="1"/><path d="M1955 1441.57C1955 1431.87 1962.87 1424 1972.57 1424L2484.43 1424C2494.13 1424 2502 1431.87 2502 1441.57L2502 1539.43C2502 1549.13 2494.13 1557 2484.43 1557L1972.57 1557C1962.87 1557 1955 1549.13 1955 1539.43Z" fill="#C1B8B5" fill-rule="evenodd" fill-opacity="1"/><path d="M1637.28 833.297C1644.12 826.458 1655.21 826.458 1662.05 833.297L1931.26 1102.51C1938.1 1109.35 1938.1 1120.44 1931.26 1127.28L1862.29 1196.25C1855.45 1203.09 1844.36 1203.09 1837.52 1196.25L1568.31 927.034C1561.47 920.195 1561.47 909.107 1568.31 902.269Z" fill="#C1B8B5" fill-rule="evenodd" fill-opacity="1"/><path d="M0 17.5116C-3.30814e-15 7.84019 7.84018 0 17.5115-3.30815e-15L398.237 0C407.908-3.30815e-15 415.748 7.84019 415.748 17.5116L415.748 115.053C415.748 124.724 407.908 132.564 398.237 132.564L17.5115 132.564C7.84018 132.564 0 124.724 0 115.053Z" fill="#C1B8B5" fill-rule="evenodd" fill-opacity="1" transform="matrix(0.707107 -0.707107 -0.707107 -0.707107 1646.62 1410.04)"/></g></g></svg>