<svg width="1604" height="1920" xmlns="http://www.w3.org/2000/svg" xmlns:xlink="http://www.w3.org/1999/xlink" xml:space="preserve" overflow="hidden"><g transform="translate(-1375 -252)"><g><path d="M2235.5 1193 2314.75 1193 2314.75 919.5 2473.25 919.5 2473.25 1193 2552.5 1193 2394 1351.5Z" stroke="#C0B8B5" stroke-width="4.58333" stroke-linecap="butt" stroke-linejoin="miter" stroke-miterlimit="8" stroke-opacity="1" fill="#C0B8B5" fill-rule="evenodd" fill-opacity="1"/><path d="M568.636 278.1 566.7 278.1 565.918 277.191 564.862 278.1 364.567 278.1 358.177 270.671 388.193 72.1229 388.957 71.4661 388.392 70.8092 388.681 68.8954 387.561 69.8428 327.483 0 0 281.695 61.4737 353.161 61.474 353.161 69.4985 362.49 270.665 189.45 244.053 365.478 242.842 366.52 243.738 367.562 243.235 370.893 245.185 369.243 250.212 375.088 248.29 376.77 434.422 376.77 231.745 551.109 238.435 558.887 293.219 622.575 304.235 635.382 631.718 353.686 567.531 279.067Z" fill="#C1B8B5" fill-rule="evenodd" fill-opacity="1" transform="matrix(-0.652119 -0.758116 -0.758116 0.652119 2377.82 1167.56)"/><path d="M2556.45 1558 2556.45 1747.87 2366.84 1747.87 2366.84 1862.13 2556.45 1862.13 2556.45 2052 2670.55 2052 2670.55 1862.13 2860.16 1862.13 2860.16 1747.87 2670.55 1747.87 2670.55 1558ZM2613.5 1441C2814.26 1441 2977 1603.97 2977 1805 2977 2006.03 2814.26 2169 2613.5 2169 2412.74 2169 2250 2006.03 2250 1805 2250 1603.97 2412.74 1441 2613.5 1441Z" fill="#C0B8B5" fill-rule="evenodd" fill-opacity="1"/><path d="M2669.79 1862.17 2796.75 1862.17 2795.43 1875.26C2783.44 1933.88 2748.69 1984.19 2700.82 2016.56L2669.79 2033.41ZM1601.96 256 2575.04 256C2699.28 256 2800 356.782 2800 481.102L2800 1747.98 2669.97 1747.98 2669.97 517.558C2669.97 445.752 2611.8 387.541 2540.04 387.541L1636.96 387.541C1565.2 387.541 1507.03 445.752 1507.03 517.558L1507.03 1793.44C1507.03 1865.25 1565.2 1923.46 1636.96 1923.46L2540.04 1923.46 2555.67 1921.88 2555.67 2051.95 2605.27 2051.95 2575.04 2055 1601.96 2055C1477.72 2055 1377 1954.22 1377 1829.9L1377 481.102C1377 356.782 1477.72 256 1601.96 256Z" fill="#C1B8B5" fill-rule="evenodd" fill-opacity="1"/><rect x="1698" y="597" width="781" height="135" fill="#C1B8B5" fill-opacity="1"/><rect x="1694" y="1524" width="782" height="136" fill="#C1B8B5" fill-opacity="1"/></g></g></svg>