<svg width="1815" height="2008" xmlns="http://www.w3.org/2000/svg" xmlns:xlink="http://www.w3.org/1999/xlink" xml:space="preserve" overflow="hidden"><g transform="translate(-1356 -187)"><g><path d="M1812.52 1391.52 1521.57 1705.14 1577.7 1732.24 1887.9 1472.76ZM2646.1 877.531 2646.1 2023.09 2946.65 1840.08 2946.65 887.022 2878.47 908.18C2854.79 913.026 2830.26 915.57 2805.14 915.57 2754.91 915.57 2707.04 905.391 2663.51 886.983ZM1590.53 738.362C1606.39 737.688 1622.51 743.065 1635.12 754.65L1958.57 1051.68 1874.2 1142.63 1581.12 873.485 1525.9 900.143 1812.52 1209.11 1727.91 1300.31 1379.98 925.257C1368.33 912.7 1362.87 896.611 1363.47 880.75L1365.74 871.053 1367.47 859.048C1372.7 844.061 1383.65 831.068 1399.07 823.622L1556.01 747.862 1565.15 745.523 1567.4 743.889C1574.73 740.548 1582.6 738.699 1590.53 738.362ZM2746.89 304.931 2746.89 494.692 2557.09 494.692 2557.09 608.878 2746.89 608.878 2746.89 798.639 2861.1 798.639 2861.1 608.878 3050.9 608.878 3050.9 494.692 2861.1 494.692 2861.1 304.931ZM2805.14 188C3006.1 188 3169 350.873 3169 551.786 3169 639.685 3137.82 720.304 3085.91 783.187L3070.71 799.907 3070.71 1860.77 3072.1 1864.58C3075.63 1888.49 3064.93 1913.29 3042.99 1926.66 2901.05 2013.08 2759.11 2099.51 2617.18 2185.94 2602.55 2194.85 2585.69 2196.99 2570.26 2193.24L2558.73 2187.94 2557.81 2187.73 2557.02 2187.15 2548.65 2183.31 2542.64 2176.81 2537.82 2173.34 1972.38 1563.83 1972.38 1563.83 1627.14 1852.61C1607.43 1869.1 1580.5 1871.26 1558.99 1860.23L1558.51 1859.85 1554.66 1858.86 1397.72 1783.1C1382.3 1775.65 1371.35 1762.66 1366.12 1747.67L1366.12 1747.63 1365.46 1746.72C1355.54 1724.68 1359.08 1697.9 1376.55 1679.06L1727.91 1300.31 1812.52 1209.11 1897.13 1300.31 1983.18 1393.06 2067.65 1484.13 2522.03 1973.92 2522.03 1733.16 2508 1724.68 2161.02 1406.03 2068.86 1321.39 2164.84 1241.11 2257 1325.74 2257 1325.74 2522.03 1569.14 2522.03 1104.05 2257 1325.74 2164.83 1241.11 2522.03 942.317 2522.03 780.055 2503.43 755.182C2493.62 740.667 2484.83 725.406 2477.17 709.502L2467.64 685.334 2049.94 1135.59 2049.94 1135.59 2164.83 1241.11 2068.86 1321.39 1965.57 1226.54 1965.57 1226.54 1874.2 1142.63 1958.57 1051.68 1958.57 1051.68 2442.38 530.162 2443.17 514.591C2461.8 331.15 2616.75 188 2805.14 188Z" fill="#C0B8B5" fill-rule="evenodd" fill-opacity="1"/></g></g></svg>