<svg width="1631" height="1801" xmlns="http://www.w3.org/2000/svg" xmlns:xlink="http://www.w3.org/1999/xlink" xml:space="preserve" overflow="hidden"><g transform="translate(-1384 -334)"><g><path d="M2297.1 1209.12 2341.28 1209.12C2374.23 1209.12 2396.16 1210.15 2407.08 1212.21 2421.91 1214.89 2434.16 1221.58 2443.84 1232.29 2453.52 1243 2458.36 1256.59 2458.36 1273.07 2458.36 1286.46 2454.91 1298.2 2448.01 1308.29 2441.11 1318.38 2431.59 1325.8 2419.43 1330.53 2407.28 1335.27 2383.19 1337.64 2347.15 1337.64L2297.1 1337.64ZM2205.66 1132.5 2205.66 1585.41 2297.1 1585.41 2297.1 1414.57 2356.72 1414.57C2398.12 1414.57 2429.73 1412.4 2451.56 1408.08 2467.63 1404.58 2483.43 1397.42 2498.98 1386.61 2514.53 1375.79 2527.35 1360.91 2537.44 1341.96 2547.53 1323.02 2552.58 1299.64 2552.58 1271.84 2552.58 1235.79 2543.83 1206.39 2526.32 1183.63 2508.82 1160.87 2487.09 1146.1 2461.14 1139.3 2444.25 1134.77 2408 1132.5 2352.4 1132.5ZM2027.52 1132.5 2027.52 1585.41 2118.96 1585.41 2118.96 1132.5ZM1632.83 1132.5 1632.83 1209.12 1843.83 1209.12 1605.96 1502.92 1605.96 1585.41 1973.89 1585.41 1973.89 1509.1 1716.24 1509.1 1964.31 1203.56 1964.31 1132.5ZM1388 954 2792 954 2792 1754 1388 1754Z" fill="#C0B9B5" fill-rule="evenodd" fill-opacity="1"/><path d="M1723.45 1501.1 1723.45 1510.19 1716.07 1510.19ZM1723.45 473.018 1723.45 1133.71 1632.66 1133.71 1632.66 1210.3 1723.45 1210.3 1723.45 1358.72 1605.78 1504.01 1605.78 1586.48 1723.45 1586.48 1723.45 2005.07 2890.4 2005.07 2890.4 924.497 2863.21 897.318 2506.64 897.318C2473.47 897.318 2446.59 870.44 2446.59 837.284L2446.59 480.789 2438.81 473.018ZM1720.52 336 2531.75 336 3012 816.138 3012 2003.51C3012 2074.47 2954.46 2132 2883.48 2132L1720.52 2132C1649.54 2132 1592 2074.47 1592 2003.51L1592 464.494C1592 393.529 1649.54 336 1720.52 336Z" fill="#C1B8B5" fill-rule="evenodd" fill-opacity="1"/></g></g></svg>